<svg width="32" height="28" viewBox="0 0 32 28" fill="none" xmlns="http://www.w3.org/2000/svg">
<path d="M25.2178 7.11113C28.9233 10.8167 28.9233 16.8406 25.2178 20.5462C21.5122 24.2517 15.4883 24.2517 11.7827 20.5462C11.5265 20.29 11.5265 19.865 11.7827 19.6088C12.0389 19.3526 12.4639 19.3526 12.7201 19.6088C15.907 22.7957 21.0935 22.7957 24.2804 19.6088C27.4673 16.4219 27.4673 11.2354 24.2804 8.04846C21.0935 4.86154 15.907 4.86154 12.7201 8.04846C12.4639 8.30466 12.0389 8.30466 11.7827 8.04846C11.5265 7.79225 11.5265 7.36733 11.7827 7.11113C15.4883 3.40556 21.5122 3.40556 25.2178 7.11113Z" fill="#FF0000"/>
<path d="M21.7461 17.2679C21.6323 17.2679 21.5186 17.2416 21.4136 17.1716L18.7011 15.5529C18.0273 15.1504 17.5286 14.2666 17.5286 13.4879V9.90039C17.5286 9.54164 17.8261 9.24414 18.1848 9.24414C18.5436 9.24414 18.8411 9.54164 18.8411 9.90039V13.4879C18.8411 13.8029 19.1036 14.2666 19.3748 14.4241L22.0873 16.0429C22.4023 16.2266 22.4986 16.6291 22.3148 16.9441C22.1836 17.1541 21.9648 17.2679 21.7461 17.2679Z" fill="#FF0000"/>
<path d="M12.1008 8.32812H6.10083C5.69083 8.32812 5.35083 7.98812 5.35083 7.57812C5.35083 7.16813 5.69083 6.82812 6.10083 6.82812H12.1008C12.5108 6.82812 12.8508 7.16813 12.8508 7.57812C12.8508 7.98812 12.5108 8.32812 12.1008 8.32812Z" fill="#FF0000"/>
<path d="M12.0508 20.7793H1.05078C0.640781 20.7793 0.300781 20.4393 0.300781 20.0293C0.300781 19.6193 0.640781 19.2793 1.05078 19.2793H12.0508C12.4608 19.2793 12.8008 19.6193 12.8008 20.0293C12.8008 20.4393 12.4608 20.7793 12.0508 20.7793Z" fill="#FF0000"/>
<path d="M10 12.6289H4C3.59 12.6289 3.25 12.2889 3.25 11.8789C3.25 11.4689 3.59 11.1289 4 11.1289H10C10.41 11.1289 10.75 11.4689 10.75 11.8789C10.75 12.2889 10.41 12.6289 10 12.6289Z" fill="#FF0000"/>
<path d="M11.0007 16.7285H3.00073C2.59073 16.7285 2.25073 16.3885 2.25073 15.9785C2.25073 15.5685 2.59073 15.2285 3.00073 15.2285H11.0007C11.4107 15.2285 11.7507 15.5685 11.7507 15.9785C11.7507 16.3885 11.4107 16.7285 11.0007 16.7285Z" fill="#FF0000"/>
</svg>
