<svg width="28" height="29" viewBox="0 0 28 29" fill="none" xmlns="http://www.w3.org/2000/svg">
<path d="M17.094 26.8169H10.9065C5.24609 26.8169 2.83984 24.3992 2.83984 18.7503V13.6055C2.83984 13.1357 3.22943 12.7461 3.69922 12.7461C4.16901 12.7461 4.55859 13.1357 4.55859 13.6055V18.7503C4.55859 23.4367 6.22005 25.0982 10.9065 25.0982H17.0826C21.769 25.0982 23.4305 23.4367 23.4305 18.7503V13.6055C23.4305 13.1357 23.8201 12.7461 24.2898 12.7461C24.7596 12.7461 25.1492 13.1357 25.1492 13.6055V18.7503C25.1607 24.3992 22.743 26.8169 17.094 26.8169Z" fill="#F9F9F9"/>
<path d="M13.9996 15.3587C12.7392 15.3587 11.5934 14.866 10.7798 13.9608C9.96628 13.0556 9.58816 11.8754 9.7142 10.615L10.4819 2.96081C10.5277 2.52539 10.8944 2.18164 11.3413 2.18164H16.6923C17.1392 2.18164 17.5059 2.51393 17.5517 2.96081L18.3194 10.615C18.4454 11.8754 18.0673 13.0556 17.2538 13.9608C16.4059 14.866 15.26 15.3587 13.9996 15.3587ZM12.109 3.90039L11.4215 10.7868C11.3413 11.5546 11.5704 12.2764 12.0517 12.8035C13.0257 13.8806 14.9736 13.8806 15.9475 12.8035C16.4288 12.265 16.6579 11.5431 16.5777 10.7868L15.8902 3.90039H12.109Z" fill="#F9F9F9"/>
<path d="M21.2298 15.3587C18.9037 15.3587 16.8298 13.4796 16.5891 11.165L15.7871 3.13268C15.7641 2.89206 15.8443 2.65143 16.0048 2.4681C16.1652 2.28477 16.3943 2.18164 16.6464 2.18164H20.1412C23.51 2.18164 25.0798 3.59102 25.5496 7.05143L25.8704 10.2368C26.0079 11.5889 25.5954 12.8723 24.7131 13.8462C23.8308 14.8202 22.5933 15.3587 21.2298 15.3587ZM17.5975 3.90039L18.3079 10.9931C18.4568 12.4254 19.786 13.64 21.2298 13.64C22.1006 13.64 22.8798 13.3077 23.4412 12.7004C23.9912 12.0931 24.2433 11.2796 24.1631 10.4087L23.8423 7.25768C23.4871 4.6681 22.6506 3.90039 20.1412 3.90039H17.5975Z" fill="#F9F9F9"/>
<path d="M6.71246 15.3587C5.34892 15.3587 4.11142 14.8202 3.22913 13.8462C2.34684 12.8723 1.93434 11.5889 2.07184 10.2368L2.38121 7.08581C2.86246 3.59102 4.43226 2.18164 7.80101 2.18164H11.2958C11.5364 2.18164 11.7656 2.28477 11.9375 2.4681C12.1093 2.65143 12.1781 2.89206 12.1552 3.13268L11.3531 11.165C11.1125 13.4796 9.03851 15.3587 6.71246 15.3587ZM7.80101 3.90039C5.29163 3.90039 4.45517 4.65664 4.08851 7.2806L3.77913 10.4087C3.68746 11.2796 3.95101 12.0931 4.50101 12.7004C5.05101 13.3077 5.83017 13.64 6.71246 13.64C8.15621 13.64 9.49684 12.4254 9.63434 10.9931L10.3448 3.90039H7.80101Z" fill="#F9F9F9"/>
<path d="M16.8649 26.8171H11.1357C10.666 26.8171 10.2764 26.4275 10.2764 25.9577V23.0931C10.2764 20.6868 11.5941 19.3691 14.0003 19.3691C16.4066 19.3691 17.7243 20.6868 17.7243 23.0931V25.9577C17.7243 26.4275 17.3347 26.8171 16.8649 26.8171ZM11.9951 25.0983H16.0055V23.0931C16.0055 21.6493 15.4441 21.0879 14.0003 21.0879C12.5566 21.0879 11.9951 21.6493 11.9951 23.0931V25.0983Z" fill="#F9F9F9"/>
</svg>
