<svg width="22" height="22" viewBox="0 0 22 22" fill="none" xmlns="http://www.w3.org/2000/svg">
<path d="M16.0426 20.5708C15.5568 20.5708 14.9334 20.415 14.1543 19.9567L11.4134 18.3342C11.1293 18.1692 10.5793 18.1692 10.3043 18.3342L7.55427 19.9567C5.93177 20.9192 4.97844 20.5342 4.54761 20.2225C4.12594 19.9108 3.46594 19.1133 3.89677 17.28L4.54761 14.4658C4.62094 14.1725 4.47427 13.6683 4.25427 13.4483L1.98094 11.175C0.844275 10.0383 0.935941 9.06667 1.09177 8.59C1.24761 8.11333 1.74261 7.27 3.31927 7.00417L6.24344 6.51833C6.51844 6.4725 6.91261 6.17917 7.03177 5.93167L8.65427 2.69583C9.38761 1.22 10.3501 1 10.8543 1C11.3584 1 12.3209 1.22 13.0543 2.69583L14.6676 5.9225C14.7959 6.17 15.1901 6.46333 15.4651 6.50917L18.3893 6.995C19.9751 7.26083 20.4701 8.10417 20.6168 8.58083C20.7634 9.0575 20.8551 10.0292 19.7276 11.1658L17.4543 13.4483C17.2343 13.6683 17.0968 14.1633 17.1609 14.4658L17.8118 17.28C18.2334 19.1133 17.5826 19.9108 17.1609 20.2225C16.9318 20.3875 16.5651 20.5708 16.0426 20.5708Z" fill="#FFA901"/>
</svg>
